<?xml version="1.0" standalone="no"?>
<!DOCTYPE svg PUBLIC "-//W3C//DTD SVG 20010904//EN"
 "http://www.w3.org/TR/2001/REC-SVG-20010904/DTD/svg10.dtd">
<svg version="1.0" xmlns="http://www.w3.org/2000/svg"
 width="2000.000000pt" height="2000.000000pt" viewBox="0 0 2000.000000 2000.000000"
 preserveAspectRatio="xMidYMid meet">
<metadata>
Created by potrace 1.14, written by Peter Selinger 2001-2017
</metadata>
<g transform="translate(0.000000,2000.000000) scale(0.100000,-0.100000)"
fill="#000000" stroke="none">
<path d="M9595 19149 c-2628 -115 -5074 -1354 -6733 -3411 -817 -1014 -1410
-2199 -1737 -3473 -375 -1462 -375 -3068 0 -4530 262 -1020 683 -1961 1265
-2830 955 -1424 2285 -2549 3853 -3259 344 -156 835 -337 1197 -441 1672 -483
3448 -483 5120 0 69 20 232 72 363 116 1631 544 3103 1568 4196 2919 832 1028
1426 2210 1756 3495 313 1219 366 2534 155 3792 -85 501 -185 900 -351 1396
-633 1899 -1904 3560 -3584 4687 -1623 1088 -3541 1625 -5500 1539z m881 -599
c1928 -110 3717 -842 5174 -2115 174 -152 633 -611 785 -785 1188 -1360 1908
-3016 2085 -4795 40 -410 52 -937 30 -1331 -112 -1959 -870 -3784 -2175 -5239
-173 -193 -540 -557 -725 -719 -1156 -1014 -2558 -1699 -4054 -1980 -790 -149
-1643 -186 -2451 -106 -1778 177 -3443 901 -4795 2086 -185 162 -552 526 -725
719 -792 883 -1382 1900 -1755 3025 -291 876 -430 1746 -430 2690 0 943 139
1812 430 2690 362 1093 929 2083 1695 2960 152 174 611 633 785 785 1447 1264
3245 2003 5145 2114 207 12 777 12 981 1z"/>
<path d="M9055 16029 c-1778 -315 -3317 -1381 -4225 -2924 -175 -298 -384
-753 -500 -1090 -204 -591 -331 -1328 -330 -1905 l1 -115 58 160 c359 987 787
1664 1176 1859 92 46 169 66 285 73 135 8 236 -13 370 -79 89 -43 116 -63 185
-132 84 -86 131 -155 172 -258 56 -137 54 -30 50 -2558 -2 -2093 -4 -2341 -18
-2392 -50 -179 -167 -293 -349 -339 -124 -32 -409 -6 -636 56 -48 13 -89 23
-90 22 -1 -1 37 -52 85 -114 298 -383 680 -766 1060 -1061 725 -563 1544 -947
2446 -1146 356 -78 828 -136 1115 -136 l95 0 825 825 825 825 485 -545 c266
-300 488 -545 494 -545 20 0 418 211 566 299 808 485 1474 1125 1985 1906 289
441 514 908 678 1410 48 147 127 432 127 459 0 5 -123 -112 -272 -260 -566
-560 -907 -829 -1270 -1004 -370 -178 -676 -167 -929 35 l-56 45 -7 487 c-10
774 -25 2739 -28 3678 -3 939 -3 947 58 1256 129 665 496 1365 1058 2019 122
142 428 452 554 561 56 49 97 89 90 89 -7 0 -92 -16 -188 -35 -959 -194 -1737
-536 -2475 -1087 -357 -266 -744 -621 -976 -892 l-70 -83 -79 53 c-206 137
-467 220 -771 244 -121 10 -350 2 -365 -12 -2 -2 27 -24 64 -48 83 -55 238
-209 317 -315 133 -178 243 -395 300 -590 58 -199 55 -64 53 -2760 l-3 -2478
-120 -95 c-355 -279 -770 -506 -1060 -581 -253 -65 -505 -36 -714 82 -136 77
-298 251 -375 404 l-26 52 0 3016 c0 1658 -2 3015 -5 3015 -3 0 -23 -11 -44
-25 -79 -49 -156 -67 -271 -63 -134 5 -194 30 -284 120 -190 190 -265 650
-175 1066 123 568 581 1159 1178 1521 46 28 80 51 75 50 -5 0 -58 -9 -119 -20z"/>
</g>
</svg>
